<?xml version="1.0" encoding="iso-8859-1"?>
<!-- Generator: Adobe Illustrator 18.1.1, SVG Export Plug-In . SVG Version: 6.00 Build 0)  -->
<svg xmlns="http://www.w3.org/2000/svg" xmlns:xlink="http://www.w3.org/1999/xlink" version="1.1" id="Capa_1" x="0px" y="0px" viewBox="0 0 198.454 198.454" style="enable-background:new 0 0 198.454 198.454;" xml:space="preserve" width="512px" height="512px">
<g>
	<g>
		<path d="M198.454,0.002H79.955l-29.662,68.27l1.503,1.249c3.65,2.988,5.744,7.423,5.744,12.15    c0,8.664-7.057,15.736-15.733,15.736c-8.672,0-15.733-7.072-15.733-15.736c0-7.773,5.801-14.462,13.496-15.557l1.428-0.211    L69.63,0.002H0v198.451h198.451v-31.057h-60.024l-0.769,1.177c-2.752,4.255-7.415,6.785-12.465,6.785    c-8.196,0-14.852-6.664-14.852-14.852c0-8.192,6.657-14.867,14.852-14.867c6.417,0,12.082,4.101,14.097,10.189l0.587,1.775h58.575    V50.116h-65.819v32.077l1.661,0.623c5.941,2.255,9.935,8.02,9.935,14.351c0,8.485-6.893,15.364-15.357,15.364    c-8.468,0-15.36-6.879-15.36-15.364c0-5.705,3.153-10.912,8.221-13.578l1.371-0.73V40.586h75.353V0.002z M108.36,97.168    c0,11.32,9.194,20.514,20.51,20.514c11.306,0,20.507-9.194,20.507-20.514c0-7.863-4.527-15.031-11.592-18.449V55.274h55.508v97.18    h-49.789c-3.185-7.297-10.296-11.964-18.313-11.964c-11.03,0-20.017,8.983-20.017,20.02c0,11.037,8.986,20.006,20.017,20.006    c6.277,0,12.2-2.96,15.976-7.967h52.126v20.754H5.157V5.155h56.614L37.392,61.272c-9.581,2.061-16.473,10.55-16.473,20.396    c0,11.51,9.373,20.886,20.89,20.886s20.886-9.377,20.886-20.886c0-5.565-2.237-10.919-6.163-14.816L83.334,5.155H193.29v30.281    h-75.346v44.381C112.014,83.55,108.36,90.139,108.36,97.168z" fill="#666e76"/>
		<path d="M33.931,81.285c0,4.298,3.486,7.788,7.784,7.788c4.287,0,7.777-3.489,7.777-7.788    c0-4.28-3.493-7.777-7.777-7.777C37.417,73.508,33.931,77.004,33.931,81.285z" fill="#666e76"/>
		<path d="M120.239,96.989c0,4.295,3.497,7.78,7.784,7.78c4.291,0,7.784-3.489,7.784-7.78    s-3.493-7.784-7.784-7.784C123.735,89.205,120.239,92.694,120.239,96.989z" fill="#666e76"/>
		<circle cx="125.031" cy="160.51" r="7.78" fill="#666e76"/>
	</g>
</g>
<g>
</g>
<g>
</g>
<g>
</g>
<g>
</g>
<g>
</g>
<g>
</g>
<g>
</g>
<g>
</g>
<g>
</g>
<g>
</g>
<g>
</g>
<g>
</g>
<g>
</g>
<g>
</g>
<g>
</g>
</svg>
